<svg width="174" height="42" viewBox="0 0 174 42" fill="none" xmlns="http://www.w3.org/2000/svg">
<g clip-path="url(#clip0_55_379)">
<path d="M40.652 0.981934H50.498V33.4219H65.177L63.018 41.2159H40.652V0.981934Z" fill="#004494"/>
<path d="M127.905 0.937012C128.679 5.07201 128.458 9.44301 127.218 13.935C125.243 21.08 120.732 28.086 114.137 34.428V41.151H174.457V0.937012H127.905Z" fill="#004494"/>
<path d="M146.627 5.85693L147.122 7.40793L148.752 7.40093L147.43 8.35293L147.94 9.89993L146.627 8.93693L145.313 9.89993L145.822 8.35193L144.5 7.40093L146.129 7.40793L146.627 5.85693Z" fill="#FFF200"/>
<path d="M146.626 32.6909L147.122 34.2439L148.752 34.2359L147.429 35.1879L147.94 36.7339L146.626 35.7719L145.313 36.7339L145.822 35.1879L144.5 34.2359L146.129 34.2439L146.626 32.6909Z" fill="#FFF200"/>
<path d="M139.952 7.64209L140.448 9.19409L142.077 9.18609L140.756 10.1371L141.266 11.6841L139.952 10.7221L138.639 11.6851L139.148 10.1371L137.826 9.18609L139.455 9.19309L139.952 7.64209Z" fill="#FFF200"/>
<path d="M135.037 12.564L135.533 14.116L137.162 14.109L135.841 15.061L136.351 16.608L135.038 15.645L133.724 16.608L134.233 15.061L132.912 14.109L134.539 14.116L135.037 12.564Z" fill="#FFF200"/>
<path d="M133.227 19.2581L133.722 20.8081L135.351 20.8031L134.028 21.7531L134.539 23.3001L133.226 22.3371L131.911 23.3001L132.421 21.7541L131.1 20.8031L132.728 20.8081L133.227 19.2581Z" fill="#FFF200"/>
<path d="M135.018 25.9509L135.515 27.5039L137.143 27.4959L135.822 28.4489L136.334 29.9939L135.02 29.0319L133.705 29.9939L134.215 28.4489L132.893 27.4959L134.522 27.5039L135.018 25.9509Z" fill="#FFF200"/>
<path d="M139.952 30.874L140.448 32.425L142.077 32.418L140.756 33.371L141.266 34.917L139.952 33.955L138.639 34.917L139.148 33.371L137.826 32.418L139.455 32.425L139.952 30.874Z" fill="#FFF200"/>
<path d="M153.305 7.64111L152.81 9.19311L151.182 9.18611L152.502 10.1381L151.992 11.6841L153.306 10.7211L154.62 11.6851L154.11 10.1371L155.432 9.18611L153.803 9.19311L153.305 7.64111Z" fill="#FFF200"/>
<path d="M158.22 12.5649L157.725 14.1159L156.095 14.1099L157.416 15.0609L156.907 16.6079L158.22 15.6459L159.534 16.6079L159.022 15.0609L160.346 14.1089L158.717 14.1159L158.22 12.5649Z" fill="#FFF200"/>
<path d="M160.033 19.2571L159.536 20.8081L157.907 20.8031L159.229 21.7531L158.72 23.3001L160.033 22.3371L161.347 23.3001L160.836 21.7531L162.159 20.8031L160.528 20.8081L160.033 19.2571Z" fill="#FFF200"/>
<path d="M158.24 25.9509L157.743 27.5039L156.112 27.4959L157.435 28.4489L156.924 29.9939L158.24 29.0319L159.553 29.9939L159.042 28.4489L160.365 27.4959L158.737 27.5039L158.24 25.9509Z" fill="#FFF200"/>
<path d="M153.306 30.874L152.81 32.425L151.182 32.418L152.503 33.369L151.993 34.917L153.306 33.955L154.62 34.917L154.11 33.369L155.432 32.418L153.803 32.425L153.306 30.874Z" fill="#FFF200"/>
<path d="M16.796 10.4481C17.967 10.0301 19.221 9.79006 20.535 9.79006C26.678 9.79006 31.659 14.7711 31.659 20.9131C31.659 27.0561 26.678 32.0371 20.535 32.0371C16.5 32.0371 12.98 29.8831 11.03 26.6681C10.807 31.9831 12.381 36.7761 15.455 40.8141C17.079 41.2271 18.781 41.4481 20.535 41.4481C31.877 41.4481 41.071 32.2541 41.071 20.9131C41.071 11.1251 34.221 2.94206 25.054 0.883057C21.805 3.89506 19.015 7.10706 16.796 10.4481Z" fill="#004494"/>
<path d="M7.129 19.389C8.935 12.851 12.773 6.422 18.307 0.5C8.015 1.611 0 10.324 0 20.913C0 27.33 2.945 33.059 7.556 36.825C5.583 31.471 5.421 25.561 7.129 19.389Z" fill="#659AD2"/>
<path d="M72.985 25.5299C72.985 25.5299 74.785 12.7499 74.9 12.0239H75.02C75.319 12.6889 82.349 25.5299 82.349 25.5299H72.985ZM96.658 33.7129L78.01 0.981934H68.647L60.397 41.2159H70.243L71.674 33.3779H86.253L90.3 41.2159H97.4C100.92 39.1599 103.467 36.9109 106.442 34.5079V25.5519H115.465C117.472 23.0369 119.141 20.4279 120.419 17.7559H106.442V8.95893H123.11C123.474 6.16993 123.337 3.50093 122.756 0.982934H96.658V33.7129Z" fill="#004494"/>
</g>
<defs>
<clipPath id="clip0_55_379">
<rect width="174" height="41" fill="white" transform="translate(0 0.5)"/>
</clipPath>
</defs>
</svg>
